<svg xmlns:xlink="http://www.w3.org/1999/xlink" xmlns="http://www.w3.org/2000/svg" fill="rgb(70, 196, 194)" klickart-edit-icon="svg" viewBox="349.373 334.498 16 16" width="46"  height="46" > <path d="M357.373, 334.498c-4.419, 0-8, 3.582-8, 8s3.581, 8, 8, 8c4.418, 0, 8-3.582, 8-8 C365.373, 338.079, 361.791, 334.498, 357.373, 334.498z M361.864, 340.313l-5.068, 5.889c-0.182, 0.212-0.442, 0.34-0.721, 0.354 s-0.551-0.085-0.755-0.275l-2.349-2.151c-0.201-0.183-0.323-0.437-0.337-0.708s0.081-0.536, 0.263-0.737l0.225-0.249 c0.372-0.412, 1.006-0.452, 1.427-0.089l1.282, 1.104l4.245-4.708c0.372-0.413, 1.005-0.453, 1.426-0.091l0.254, 0.218 c0.206, 0.177, 0.333, 0.429, 0.354, 0.699S362.042, 340.107, 361.864, 340.313z" fill="#46C4C2"></path> </svg>